<svg width="258" height="82" viewBox="0 0 258 82" fill="none" xmlns="http://www.w3.org/2000/svg">
<path d="M17.4976 12.4421H39.5655V78.4186H17.4976V12.4421Z" fill="#FFCC00"/>
<path d="M28.5316 12.4421H39.5656V78.4186H28.5316V12.4421Z" fill="#CDA503"/>
<path d="M19.7885 64.8856H37.2749V69.4671H19.7885V64.8856Z" fill="#8E1E2C"/>
<path d="M28.5316 64.8856H37.2748V69.4671H28.5316V64.8856Z" fill="#8E1E2C"/>
<path d="M26.2408 30.666H30.8224V60.1945H26.2408V30.666Z" fill="#AE2538"/>
<path d="M19.7885 21.3939H37.2749V25.9754H19.7885V21.3939Z" fill="#8E1E2C"/>
<path d="M28.5316 21.3939H37.2748V25.9754H28.5316V21.3939Z" fill="#8E1E2C"/>
<path d="M34.984 4.19482H49.4156V78.4186H34.984V4.19482Z" fill="#6D31A4"/>
<path d="M42.5372 4.19482H49.4156V78.4186H42.5372V4.19482Z" fill="#572783"/>
<path d="M34.984 16.8119H47.1249V21.3934H34.984V16.8119Z" fill="#BEEBFA"/>
<path d="M34.984 16.8119H49.4156V21.3934H34.984V16.8119Z" fill="#FFCC00"/>
<path d="M0 0.234863H22.0791V78.4186H0V0.234863Z" fill="#F1EFEF"/>
<path d="M0 12.5491H22.1852V26.9944H0V12.5491Z" fill="#6D31A4"/>
<path d="M27.3864 30.666H29.6771V60.1945H27.3864V30.666Z" fill="#8E1E2C"/>
<rect x="14" width="8" height="78" fill="black" fill-opacity="0.2"/>
<rect x="43.0259" y="16.8068" width="6.49869" height="4.48185" fill="#CDA503"/>
<path d="M71.7813 50.497C71.7813 49.5412 71.634 48.8585 71.3393 48.4489C71.0446 48.0166 70.6366 47.7435 70.1152 47.6297C69.6165 47.5159 69.0611 47.4704 68.4491 47.4932L67.565 47.5273V53.1253C67.565 53.7397 67.5537 54.32 67.531 54.8662C67.5083 55.4123 67.4743 55.8333 67.429 56.1291H71.9853C72.6654 56.1291 73.3227 55.9812 73.9574 55.6854C74.5922 55.3668 75.1135 54.8548 75.5216 54.1493C75.9296 53.4212 76.1336 52.4426 76.1336 51.2138H78.3437L78.1737 58.7233H60.2205V56.4705C60.7419 56.4477 61.1726 56.3795 61.5126 56.2657C61.8753 56.1519 62.1473 55.8902 62.3287 55.4806C62.5327 55.071 62.6347 54.411 62.6347 53.5008V40.4274C62.6347 39.813 62.646 39.2213 62.6687 38.6524C62.714 38.0835 62.748 37.6511 62.7707 37.3553C62.408 37.3781 61.9546 37.4008 61.4106 37.4236C60.8666 37.4236 60.4699 37.4349 60.2205 37.4577V34.8294H77.2217L77.4257 41.4514H75.1815C75.1815 40.1998 74.9662 39.2554 74.5355 38.6183C74.1048 37.9811 73.5721 37.5601 72.9374 37.3553C72.3027 37.1277 71.6793 37.0253 71.0673 37.0481L69.8432 37.0822C69.3671 37.0822 68.9591 37.1505 68.6191 37.287C68.2791 37.4008 68.0184 37.6739 67.837 38.1063C67.6557 38.5159 67.565 39.1644 67.565 40.0519V45.172H71.5433L71.4073 42.2024H74.0255V50.497H71.7813Z" fill="white"/>
<path d="M80.5887 56.5046C81.5408 56.5046 82.1075 56.2315 82.2888 55.6854C82.4928 55.1165 82.5948 54.3769 82.5948 53.4667V39.4375C82.5948 39.0279 82.6062 38.5614 82.6288 38.038C82.6515 37.4918 82.6855 36.9684 82.7308 36.4678C82.3681 36.4906 81.9375 36.5133 81.4388 36.5361C80.9627 36.5361 80.6 36.5475 80.3507 36.5702V33.976C81.9375 33.976 83.1502 33.8622 83.9889 33.6347C84.8276 33.4071 85.3604 33.1795 85.587 32.952H87.4232V53.2277C87.4232 53.5463 87.4118 54.0014 87.3892 54.5931C87.3665 55.162 87.3325 55.7081 87.2871 56.2315C87.6725 56.186 88.0805 56.1633 88.5112 56.1633C88.9419 56.1405 89.2706 56.1291 89.4973 56.1291V58.7233H80.5887V56.5046Z" fill="white"/>
<path d="M100.964 58.7233V56.4705C101.485 56.4477 101.916 56.3795 102.256 56.2657C102.618 56.1519 102.89 55.8902 103.072 55.4806C103.276 55.071 103.378 54.411 103.378 53.5008V40.4274C103.378 39.813 103.389 39.2213 103.412 38.6524C103.457 38.0835 103.491 37.6511 103.514 37.3553C103.151 37.3781 102.698 37.4008 102.154 37.4236C101.61 37.4236 101.213 37.4349 100.964 37.4577V34.8294C102.528 34.8066 104.092 34.7952 105.656 34.7952C107.243 34.7952 108.818 34.7839 110.382 34.7611C113.102 34.7383 115.256 35.2504 116.843 36.2971C118.452 37.3212 119.2 38.88 119.087 40.9735C119.019 41.952 118.588 42.8964 117.795 43.8067C117.001 44.6942 115.8 45.3541 114.19 45.7865V45.8206C116.457 46.1847 118.123 46.947 119.189 48.1076C120.254 49.2454 120.787 50.5197 120.787 51.9306C120.787 53.4098 120.424 54.6614 119.699 55.6854C118.996 56.6867 118.021 57.449 116.775 57.9724C115.528 58.473 114.111 58.7233 112.524 58.7233H100.964ZM108.308 45.3086L110.076 45.2744C111.504 45.2289 112.49 44.7738 113.034 43.9091C113.601 43.0216 113.884 41.952 113.884 40.7005C113.884 39.7902 113.703 39.0848 113.34 38.5841C112.978 38.0607 112.524 37.6853 111.98 37.4577C111.436 37.2301 110.87 37.1277 110.28 37.1505C109.917 37.1505 109.589 37.2074 109.294 37.3212C108.999 37.4349 108.761 37.6966 108.58 38.1063C108.399 38.4931 108.308 39.1303 108.308 40.0178V45.3086ZM108.172 56.2998C108.761 56.2998 109.328 56.2998 109.872 56.2998C110.416 56.2998 110.949 56.2884 111.47 56.2657C112.853 56.1974 113.862 55.7537 114.496 54.9344C115.131 54.1152 115.448 53.0798 115.448 51.8282C115.448 50.7814 115.233 49.9622 114.802 49.3706C114.372 48.7561 113.816 48.3238 113.136 48.0735C112.479 47.8231 111.788 47.698 111.062 47.698C110.495 47.698 110.008 47.698 109.6 47.698C109.192 47.698 108.761 47.7094 108.308 47.7321V53.296C108.308 53.9104 108.297 54.4907 108.274 55.0368C108.251 55.583 108.217 56.004 108.172 56.2998Z" fill="white"/>
<path d="M129.91 59.2695C127.87 59.2695 126.419 58.6664 125.558 57.4604C124.697 56.2543 124.266 54.3428 124.266 51.7258V47.8004C124.266 47.3908 124.277 46.9243 124.3 46.4009C124.323 45.8547 124.345 45.3313 124.368 44.8307C124.005 44.8535 123.575 44.8762 123.076 44.899C122.6 44.899 122.237 44.9103 121.988 44.9331V42.3389H122.328C123.733 42.3389 124.844 42.2251 125.66 41.9976C126.476 41.77 126.998 41.5424 127.224 41.3149H129.094V51.76C129.094 53.2391 129.287 54.3428 129.672 55.071C130.058 55.7764 130.67 56.1291 131.508 56.1291C132.098 56.1291 132.687 55.9698 133.277 55.6513C133.889 55.3099 134.387 54.9231 134.773 54.4907V47.8004C134.773 47.3908 134.784 46.9243 134.807 46.4009C134.829 45.8547 134.863 45.3313 134.909 44.8307C134.546 44.8535 134.115 44.8762 133.617 44.899C133.141 44.899 132.778 44.9103 132.529 44.9331V42.3389H133.345C134.41 42.3389 135.351 42.2251 136.167 41.9976C136.983 41.7472 137.504 41.5197 137.731 41.3149H139.601V53.2277C139.601 53.5463 139.59 54.0014 139.567 54.5931C139.544 55.162 139.51 55.7081 139.465 56.2315C139.828 56.186 140.224 56.1633 140.655 56.1633C141.108 56.1405 141.448 56.1291 141.675 56.1291V58.7233H135.215C135.192 58.4275 135.158 58.1317 135.113 57.8358C135.09 57.54 135.056 57.2442 135.011 56.9484C134.308 57.54 133.549 58.0748 132.733 58.5527C131.939 59.0305 130.998 59.2695 129.91 59.2695Z" fill="white"/>
<path d="M151.711 59.2695C150.737 59.2695 149.785 59.1443 148.855 58.894C147.926 58.6437 147.2 58.3251 146.679 57.9382L146.747 58.9623H144.163L144.027 53.0912H146.237C146.35 54.138 146.894 55.0255 147.869 55.7537C148.844 56.4591 150.057 56.8118 151.507 56.8118C152.074 56.8118 152.607 56.6753 153.106 56.4022C153.604 56.1291 153.854 55.6968 153.854 55.1051C153.831 54.4452 153.48 53.9559 152.799 53.6373C152.142 53.3187 151.179 52.9091 149.909 52.4085C149.207 52.1354 148.493 51.851 147.767 51.5551C147.064 51.2593 146.407 50.9066 145.795 50.497C145.206 50.0646 144.73 49.5412 144.367 48.9268C144.004 48.2896 143.823 47.5159 143.823 46.6057C143.823 45.7182 144.038 44.8535 144.469 44.0115C144.922 43.1695 145.625 42.4754 146.577 41.9293C147.529 41.3831 148.742 41.1101 150.215 41.1101C150.827 41.1101 151.519 41.2125 152.289 41.4173C153.083 41.5993 153.752 41.8838 154.296 42.2706V41.2807H156.88V47.3225H154.67C154.466 46.1392 153.944 45.2062 153.106 44.5235C152.267 43.8408 151.235 43.4995 150.011 43.4995C149.445 43.4995 148.923 43.636 148.447 43.9091C147.994 44.1821 147.767 44.6486 147.767 45.3086C147.767 45.832 147.949 46.253 148.311 46.5715C148.674 46.8674 149.173 47.1177 149.807 47.3225C150.442 47.5273 151.145 47.7662 151.915 48.0393C153.072 48.4262 154.092 48.8813 154.976 49.4047C155.882 49.9281 156.596 50.5653 157.118 51.3162C157.639 52.0444 157.9 52.9433 157.9 54.0128C157.9 55.1961 157.605 56.1746 157.016 56.9484C156.426 57.7221 155.656 58.3023 154.704 58.6892C153.774 59.0761 152.777 59.2695 151.711 59.2695Z" fill="white"/>
<path d="M168.419 59.2695C166.9 59.2695 165.506 58.9281 164.236 58.2455C162.967 57.5628 161.947 56.5729 161.176 55.2758C160.428 53.9787 160.054 52.4085 160.054 50.5653C160.054 48.8358 160.428 47.2656 161.176 45.8547C161.924 44.4211 162.955 43.2719 164.27 42.4072C165.608 41.5424 167.149 41.1101 168.895 41.1101C170.345 41.1101 171.547 41.3376 172.499 41.7928C173.474 42.2251 174.199 42.8054 174.675 43.5336C175.174 44.239 175.423 44.99 175.423 45.7865C175.423 46.4464 175.219 47.038 174.811 47.5614C174.426 48.0621 173.87 48.3238 173.145 48.3465C172.283 48.3693 171.683 48.1303 171.343 47.6297C171.003 47.1063 170.833 46.6057 170.833 46.1278C170.833 45.923 170.867 45.6841 170.935 45.411C171.003 45.1152 171.105 44.8535 171.241 44.6259C170.991 44.1253 170.595 43.8067 170.051 43.6701C169.507 43.5336 169.076 43.4767 168.759 43.4995C167.67 43.5677 166.775 44.1139 166.072 45.1379C165.37 46.1619 165.018 47.6411 165.018 49.5754C165.018 50.7132 165.154 51.7827 165.426 52.784C165.721 53.7625 166.197 54.5703 166.854 55.2075C167.512 55.8447 168.396 56.186 169.507 56.2315C170.459 56.2543 171.388 56.0267 172.295 55.5489C173.202 55.071 173.972 54.4224 174.607 53.6032L176.171 55.1392C175.355 56.2771 174.505 57.1418 173.621 57.7334C172.737 58.3251 171.853 58.7233 170.969 58.9281C170.107 59.1557 169.257 59.2695 168.419 59.2695Z" fill="white"/>
<path d="M186.323 59.2695C184.691 59.2695 183.218 58.9168 181.903 58.2113C180.588 57.5059 179.546 56.5046 178.775 55.2075C178.027 53.8877 177.653 52.3402 177.653 50.5653C177.653 48.6765 178.038 47.0267 178.809 45.6158C179.602 44.1821 180.645 43.0785 181.937 42.3048C183.252 41.5083 184.68 41.1101 186.221 41.1101C187.853 41.1101 189.316 41.4628 190.608 42.1682C191.9 42.8737 192.92 43.8863 193.668 45.2062C194.416 46.5033 194.79 48.0621 194.79 49.8826C194.79 51.7941 194.427 53.4553 193.702 54.8662C192.977 56.2771 191.979 57.3693 190.71 58.1431C189.44 58.894 187.978 59.2695 186.323 59.2695ZM186.459 56.846C187.366 56.8232 188.046 56.5046 188.5 55.8902C188.976 55.2758 189.304 54.5021 189.486 53.5691C189.667 52.6361 189.758 51.6917 189.758 50.7359C189.758 49.8939 189.69 49.0406 189.554 48.1759C189.44 47.3111 189.248 46.526 188.976 45.8206C188.704 45.1152 188.33 44.5462 187.853 44.1139C187.4 43.6815 186.833 43.4767 186.153 43.4995C185.269 43.5222 184.567 43.8408 184.045 44.4552C183.547 45.0696 183.184 45.8433 182.957 46.7764C182.753 47.6866 182.651 48.6424 182.651 49.6436C182.651 50.8042 182.776 51.942 183.025 53.0571C183.275 54.1721 183.671 55.0937 184.215 55.8219C184.782 56.5274 185.53 56.8687 186.459 56.846ZM184.487 39.4375L182.923 38.038L185.711 33.2592C186.074 32.6903 186.561 32.3034 187.173 32.0986C187.785 31.8938 188.364 32.0076 188.908 32.44C189.429 32.9406 189.622 33.5209 189.486 34.1808C189.35 34.8407 189.055 35.3869 188.602 35.8193L184.487 39.4375Z" fill="white"/>
<path d="M197.252 58.7233V56.5046C198.181 56.5046 198.748 56.2315 198.952 55.6854C199.156 55.1165 199.258 54.3769 199.258 53.4667V47.7321C199.258 47.3225 199.269 46.8674 199.292 46.3667C199.315 45.8433 199.349 45.3313 199.394 44.8307C199.031 44.8535 198.601 44.8762 198.102 44.899C197.626 44.899 197.263 44.9103 197.014 44.9331V42.3389C198.578 42.3389 199.779 42.2251 200.618 41.9976C201.48 41.77 202.024 41.5424 202.25 41.3149H203.916C203.962 41.6107 203.984 41.8269 203.984 41.9634C203.984 42.1 203.984 42.2365 203.984 42.373C204.007 42.4868 204.052 42.703 204.12 43.0216C204.574 42.6575 205.095 42.3389 205.685 42.0658C206.274 41.77 206.863 41.5424 207.453 41.3831C208.042 41.2011 208.563 41.1101 209.017 41.1101C211.102 41.1101 212.576 41.7131 213.437 42.9192C214.321 44.1025 214.763 46.014 214.763 48.6537V53.2277C214.763 53.5463 214.752 54.0014 214.729 54.5931C214.706 55.162 214.672 55.7081 214.627 56.2315C215.012 56.186 215.421 56.1633 215.851 56.1633C216.282 56.1405 216.611 56.1291 216.837 56.1291V58.7233H207.929V56.5046C208.881 56.5046 209.459 56.2315 209.663 55.6854C209.867 55.1165 209.969 54.3769 209.969 53.4667L209.935 48.6196C209.935 47.1404 209.719 46.0482 209.289 45.3427C208.881 44.6145 208.178 44.2504 207.181 44.2504C206.614 44.2504 206.047 44.3756 205.48 44.6259C204.936 44.8762 204.472 45.172 204.086 45.5134V53.2277C204.086 53.5463 204.075 54.0014 204.052 54.5931C204.03 55.162 203.996 55.7081 203.95 56.2315C204.313 56.186 204.71 56.1633 205.14 56.1633C205.594 56.1405 205.934 56.1291 206.161 56.1291V58.7233H197.252Z" fill="white"/>
<path d="M67.9292 77.4107V78.4453H59.9999V66.597H67.7796V67.6316H61.1635V71.9037H66.9318V72.8883H61.1635V77.4107H67.9292Z" fill="white"/>
<path d="M72.7071 78.6122C71.9979 78.6122 71.3385 78.4954 70.729 78.2618C70.1305 78.017 69.6041 77.661 69.1497 77.1938L69.6152 76.3927C70.1028 76.8489 70.5904 77.1826 71.078 77.394C71.5767 77.5943 72.1031 77.6944 72.6573 77.6944C73.3222 77.6944 73.8652 77.5609 74.2863 77.2939C74.7186 77.0158 74.9347 76.6208 74.9347 76.109C74.9347 75.7642 74.8294 75.5027 74.6188 75.3247C74.4193 75.1356 74.1257 74.9854 73.7378 74.8741C73.361 74.7629 72.9066 74.635 72.3747 74.4903C71.7762 74.3234 71.272 74.151 70.8619 73.973C70.463 73.7839 70.1582 73.5502 69.9477 73.2721C69.7482 72.9829 69.6484 72.6102 69.6484 72.154C69.6484 71.5978 69.787 71.1305 70.064 70.7522C70.3522 70.374 70.74 70.0903 71.2277 69.9012C71.7264 69.7009 72.2805 69.6008 72.89 69.6008C73.5549 69.6008 74.1423 69.7065 74.6521 69.9179C75.1618 70.1292 75.5774 70.4241 75.8988 70.8023L75.3502 71.57C75.051 71.2139 74.6798 70.9525 74.2365 70.7856C73.8043 70.6076 73.3333 70.5186 72.8235 70.5186C72.4689 70.5186 72.1309 70.5687 71.8095 70.6688C71.4881 70.7578 71.2221 70.9136 71.0115 71.1361C70.8121 71.3474 70.7123 71.6423 70.7123 72.0205C70.7123 72.4878 70.8841 72.8104 71.2277 72.9884C71.5712 73.1664 72.0921 73.3556 72.7902 73.5558C73.4441 73.7338 74.0148 73.9118 74.5025 74.0898C74.9901 74.2678 75.3669 74.507 75.6328 74.8074C75.8988 75.0967 76.0318 75.5027 76.0318 76.0256C76.0318 76.8377 75.727 77.4719 75.1175 77.928C74.508 78.3842 73.7045 78.6122 72.7071 78.6122Z" fill="white"/>
<path d="M82.3221 78.6122C81.6017 78.6122 80.9534 78.4231 80.3771 78.0448C79.8119 77.6666 79.3631 77.1993 79.0306 76.6431V81.9999H77.9002V69.751H78.9143V71.4365C79.2578 70.8913 79.7122 70.4519 80.2774 70.1181C80.8537 69.7732 81.4743 69.6008 82.1392 69.6008C82.7376 69.6008 83.2862 69.7287 83.7849 69.9846C84.2836 70.2294 84.7158 70.5631 85.0815 70.9859C85.4583 71.4086 85.7465 71.8926 85.9459 72.4377C86.1454 72.9717 86.2452 73.528 86.2452 74.1065C86.2452 74.9186 86.0789 75.6696 85.7465 76.3594C85.4251 77.038 84.9652 77.5831 84.3667 77.9948C83.7794 78.4064 83.0978 78.6122 82.3221 78.6122ZM82.0062 77.611C82.6379 77.611 83.1809 77.4441 83.6353 77.1103C84.1007 76.7654 84.4609 76.326 84.7158 75.792C84.9707 75.258 85.0981 74.6961 85.0981 74.1065C85.0981 73.4835 84.9541 72.905 84.6659 72.371C84.3778 71.837 83.9899 71.4086 83.5023 71.086C83.0258 70.7634 82.4827 70.6021 81.8732 70.6021C81.4964 70.6021 81.0975 70.7022 80.6763 70.9024C80.2663 71.0916 79.9006 71.353 79.5792 71.6868C79.2689 72.0094 79.086 72.3654 79.0306 72.7548V75.4248C79.2855 76.0367 79.6845 76.5541 80.2275 76.9768C80.7705 77.3996 81.3634 77.611 82.0062 77.611Z" fill="white"/>
<path d="M91.9002 78.6122C91.0691 78.6122 90.3265 78.4064 89.6727 77.9948C89.0188 77.5831 88.5035 77.0324 88.1267 76.3427C87.7499 75.6529 87.5615 74.8964 87.5615 74.0731C87.5615 73.261 87.7444 72.5156 88.1101 71.837C88.4869 71.1583 89.0022 70.6187 89.6561 70.2182C90.3099 69.8066 91.0524 69.6008 91.8836 69.6008C92.7369 69.6008 93.485 69.8066 94.1277 70.2182C94.7705 70.6299 95.2692 71.175 95.6238 71.8536C95.9896 72.5212 96.1724 73.2554 96.1724 74.0564C96.1724 74.2344 96.1669 74.3846 96.1558 74.507H88.7418C88.7972 75.13 88.9745 75.6863 89.2737 76.1758C89.5729 76.6542 89.9553 77.038 90.4207 77.3273C90.8862 77.6054 91.396 77.7445 91.9501 77.7445C92.5153 77.7445 93.0472 77.5998 93.5459 77.3106C94.0446 77.0213 94.3993 76.6431 94.6098 76.1758L95.5906 76.4428C95.4133 76.8656 95.1362 77.2438 94.7594 77.5776C94.3937 77.9002 93.9671 78.1561 93.4794 78.3452C92.9918 78.5232 92.4654 78.6122 91.9002 78.6122ZM88.7085 73.6893H95.1085C95.0642 73.0663 94.8924 72.5156 94.5932 72.0372C94.294 71.5477 93.9116 71.1694 93.4462 70.9024C92.9807 70.6243 92.4654 70.4852 91.9002 70.4852C91.335 70.4852 90.8197 70.6243 90.3542 70.9024C89.8888 71.1694 89.5065 71.5477 89.2072 72.0372C88.9191 72.5156 88.7529 73.0663 88.7085 73.6893Z" fill="white"/>
<path d="M101.673 78.6122C100.831 78.6122 100.083 78.4064 99.4292 77.9948C98.7753 77.572 98.26 77.0213 97.8832 76.3427C97.5064 75.6529 97.318 74.8964 97.318 74.0731C97.318 73.2499 97.5009 72.5045 97.8666 71.837C98.2323 71.1583 98.7421 70.6187 99.3959 70.2182C100.05 69.8066 100.803 69.6008 101.657 69.6008C102.466 69.6008 103.175 69.7899 103.784 70.1682C104.405 70.5353 104.871 71.0359 105.181 71.6701L104.084 72.0205C103.84 71.5755 103.496 71.2306 103.053 70.9859C102.621 70.73 102.139 70.6021 101.607 70.6021C101.019 70.6021 100.488 70.7522 100.011 71.0526C99.5455 71.353 99.1687 71.7702 98.8806 72.3042C98.6035 72.8271 98.465 73.4167 98.465 74.0731C98.465 74.7295 98.6091 75.3247 98.8972 75.8587C99.1854 76.3927 99.5677 76.8211 100.044 77.1437C100.521 77.4552 101.047 77.611 101.623 77.611C102 77.611 102.366 77.5442 102.721 77.4107C103.075 77.2772 103.38 77.0992 103.635 76.8767C103.89 76.6431 104.062 76.3927 104.15 76.1257L105.264 76.4595C105.109 76.8711 104.854 77.2438 104.499 77.5776C104.145 77.9002 103.724 78.1561 103.236 78.3452C102.748 78.5232 102.227 78.6122 101.673 78.6122Z" fill="white"/>
<path d="M107.04 67.932V66.2632H108.17V67.932H107.04ZM107.04 78.4453V69.751H108.17V78.4453H107.04Z" fill="white"/>
<path d="M109.962 75.9422C109.962 75.4082 110.117 74.9465 110.427 74.5571C110.738 74.1566 111.164 73.8451 111.707 73.6226C112.261 73.4001 112.899 73.2888 113.619 73.2888C114.04 73.2888 114.478 73.3277 114.932 73.4056C115.387 73.4724 115.791 73.5669 116.146 73.6893V72.955C116.146 72.2208 115.93 71.6367 115.497 71.2028C115.065 70.7689 114.467 70.552 113.702 70.552C113.248 70.552 112.793 70.641 112.339 70.819C111.885 70.9859 111.414 71.2362 110.926 71.57L110.494 70.7689C111.059 70.3796 111.613 70.0903 112.156 69.9012C112.699 69.7009 113.253 69.6008 113.818 69.6008C114.882 69.6008 115.725 69.9067 116.345 70.5186C116.966 71.1305 117.276 71.976 117.276 73.0552V77.0769C117.276 77.3773 117.415 77.5331 117.692 77.5442V78.4453C117.448 78.4787 117.276 78.4898 117.176 78.4787C116.899 78.4676 116.689 78.3786 116.545 78.2117C116.401 78.0448 116.323 77.8668 116.312 77.6777L116.295 77.0436C115.907 77.5442 115.403 77.9336 114.783 78.2117C114.162 78.4787 113.53 78.6122 112.887 78.6122C112.322 78.6122 111.818 78.4954 111.375 78.2618C110.931 78.017 110.582 77.6944 110.327 77.2939C110.084 76.8823 109.962 76.4317 109.962 75.9422ZM115.763 76.6097C116.018 76.3093 116.146 76.0312 116.146 75.7753V74.507C115.381 74.2066 114.583 74.0564 113.752 74.0564C112.943 74.0564 112.289 74.2178 111.79 74.5404C111.292 74.863 111.042 75.3025 111.042 75.8587C111.042 76.3371 111.225 76.771 111.591 77.1604C111.968 77.5498 112.488 77.7445 113.153 77.7445C113.696 77.7445 114.201 77.6388 114.666 77.4274C115.143 77.216 115.508 76.9434 115.763 76.6097Z" fill="white"/>
<path d="M119.768 66.2632H120.899V76.4762C120.899 76.9101 120.971 77.1938 121.115 77.3273C121.27 77.4608 121.464 77.5275 121.697 77.5275C121.896 77.5275 122.095 77.5053 122.295 77.4608C122.506 77.4163 122.677 77.3718 122.81 77.3273L123.01 78.2451C122.799 78.3341 122.539 78.4064 122.228 78.462C121.929 78.5177 121.669 78.5455 121.447 78.5455C120.937 78.5455 120.527 78.3953 120.217 78.0949C119.918 77.7945 119.768 77.3829 119.768 76.86V66.2632Z" fill="white"/>
<path d="M124.248 67.932V66.2632H125.378V67.932H124.248ZM124.248 78.4453V69.751H125.378V78.4453H124.248Z" fill="white"/>
<path d="M127.136 77.6777L132.938 70.6021H127.269V69.751H134.218V70.5186L128.45 77.5943H134.201V78.4453H127.136V77.6777Z" fill="white"/>
<path d="M135.351 75.9422C135.351 75.4082 135.506 74.9465 135.817 74.5571C136.127 74.1566 136.554 73.8451 137.097 73.6226C137.651 73.4001 138.288 73.2888 139.008 73.2888C139.43 73.2888 139.867 73.3277 140.322 73.4056C140.776 73.4724 141.181 73.5669 141.535 73.6893V72.955C141.535 72.2208 141.319 71.6367 140.887 71.2028C140.455 70.7689 139.856 70.552 139.092 70.552C138.637 70.552 138.183 70.641 137.728 70.819C137.274 70.9859 136.803 71.2362 136.315 71.57L135.883 70.7689C136.448 70.3796 137.003 70.0903 137.546 69.9012C138.089 69.7009 138.643 69.6008 139.208 69.6008C140.272 69.6008 141.114 69.9067 141.735 70.5186C142.355 71.1305 142.666 71.976 142.666 73.0552V77.0769C142.666 77.3773 142.804 77.5331 143.081 77.5442V78.4453C142.837 78.4787 142.666 78.4898 142.566 78.4787C142.289 78.4676 142.078 78.3786 141.934 78.2117C141.79 78.0448 141.713 77.8668 141.701 77.6777L141.685 77.0436C141.297 77.5442 140.793 77.9336 140.172 78.2117C139.551 78.4787 138.92 78.6122 138.277 78.6122C137.712 78.6122 137.208 78.4954 136.764 78.2618C136.321 78.017 135.972 77.6944 135.717 77.2939C135.473 76.8823 135.351 76.4317 135.351 75.9422ZM141.153 76.6097C141.408 76.3093 141.535 76.0312 141.535 75.7753V74.507C140.771 74.2066 139.973 74.0564 139.141 74.0564C138.332 74.0564 137.679 74.2178 137.18 74.5404C136.681 74.863 136.432 75.3025 136.432 75.8587C136.432 76.3371 136.615 76.771 136.98 77.1604C137.357 77.5498 137.878 77.7445 138.543 77.7445C139.086 77.7445 139.59 77.6388 140.056 77.4274C140.532 77.216 140.898 76.9434 141.153 76.6097Z" fill="white"/>
<path d="M144.526 74.1232C144.526 73.2999 144.692 72.549 145.025 71.8703C145.368 71.1806 145.839 70.6299 146.438 70.2182C147.036 69.8066 147.718 69.6008 148.482 69.6008C149.203 69.6008 149.846 69.7955 150.411 70.1849C150.987 70.5631 151.436 71.0248 151.757 71.57V66.2632H152.888V77.0769C152.888 77.3773 153.021 77.5331 153.287 77.5442V78.4453C153.065 78.4787 152.893 78.4898 152.771 78.4787C152.527 78.4676 152.317 78.3786 152.14 78.2117C151.973 78.0337 151.89 77.8335 151.89 77.611V76.7599C151.547 77.3273 151.081 77.7778 150.494 78.1116C149.907 78.4453 149.297 78.6122 148.665 78.6122C148.067 78.6122 147.513 78.4898 147.003 78.2451C146.493 78.0003 146.05 77.6666 145.673 77.2438C145.307 76.8211 145.025 76.3427 144.825 75.8087C144.626 75.2635 144.526 74.7017 144.526 74.1232ZM151.757 75.4582V72.7715C151.613 72.371 151.38 72.0094 151.059 71.6868C150.738 71.353 150.372 71.0916 149.962 70.9024C149.563 70.7022 149.164 70.6021 148.765 70.6021C148.144 70.6021 147.601 70.7745 147.136 71.1194C146.682 71.4531 146.327 71.8926 146.072 72.4377C145.817 72.9717 145.69 73.5336 145.69 74.1232C145.69 74.7462 145.828 75.3247 146.105 75.8587C146.393 76.3927 146.781 76.8211 147.269 77.1437C147.757 77.4552 148.305 77.611 148.915 77.611C149.291 77.611 149.685 77.5164 150.095 77.3273C150.516 77.127 150.882 76.8656 151.192 76.5429C151.513 76.2203 151.702 75.8587 151.757 75.4582Z" fill="white"/>
<path d="M159.139 78.6122C158.308 78.6122 157.566 78.4064 156.912 77.9948C156.269 77.5831 155.765 77.038 155.399 76.3594C155.033 75.6696 154.85 74.9242 154.85 74.1232C154.85 73.3111 155.033 72.5657 155.399 71.887C155.776 71.1973 156.286 70.6466 156.928 70.2349C157.582 69.8122 158.319 69.6008 159.139 69.6008C159.97 69.6008 160.707 69.8122 161.35 70.2349C162.004 70.6466 162.514 71.1973 162.879 71.887C163.256 72.5657 163.445 73.3111 163.445 74.1232C163.445 74.9242 163.262 75.6696 162.896 76.3594C162.53 77.038 162.021 77.5831 161.367 77.9948C160.724 78.4064 159.981 78.6122 159.139 78.6122ZM155.997 74.1399C155.997 74.7851 156.136 75.3748 156.413 75.9088C156.701 76.4317 157.083 76.8489 157.56 77.1604C158.037 77.4608 158.563 77.611 159.139 77.611C159.715 77.611 160.242 77.4552 160.718 77.1437C161.195 76.8322 161.577 76.4094 161.865 75.8754C162.154 75.3414 162.298 74.7518 162.298 74.1065C162.298 73.4612 162.154 72.8716 161.865 72.3376C161.577 71.8036 161.195 71.3808 160.718 71.0693C160.242 70.7578 159.715 70.6021 159.139 70.6021C158.574 70.6021 158.053 70.7634 157.577 71.086C157.1 71.3975 156.718 71.8203 156.43 72.3543C156.141 72.8883 155.997 73.4835 155.997 74.1399Z" fill="white"/>
<path d="M168.178 78.6122C167.468 78.6122 166.809 78.4954 166.2 78.2618C165.601 78.017 165.075 77.661 164.62 77.1938L165.086 76.3927C165.573 76.8489 166.061 77.1826 166.549 77.394C167.047 77.5943 167.574 77.6944 168.128 77.6944C168.793 77.6944 169.336 77.5609 169.757 77.2939C170.189 77.0158 170.405 76.6208 170.405 76.109C170.405 75.7642 170.3 75.5027 170.089 75.3247C169.89 75.1356 169.596 74.9854 169.208 74.8741C168.832 74.7629 168.377 74.635 167.845 74.4903C167.247 74.3234 166.743 74.151 166.333 73.973C165.934 73.7839 165.629 73.5502 165.418 73.2721C165.219 72.9829 165.119 72.6102 165.119 72.154C165.119 71.5978 165.258 71.1305 165.535 70.7522C165.823 70.374 166.211 70.0903 166.698 69.9012C167.197 69.7009 167.751 69.6008 168.361 69.6008C169.026 69.6008 169.613 69.7065 170.123 69.9179C170.632 70.1292 171.048 70.4241 171.369 70.8023L170.821 71.57C170.522 71.2139 170.15 70.9525 169.707 70.7856C169.275 70.6076 168.804 70.5186 168.294 70.5186C167.939 70.5186 167.601 70.5687 167.28 70.6688C166.959 70.7578 166.693 70.9136 166.482 71.1361C166.283 71.3474 166.183 71.6423 166.183 72.0205C166.183 72.4878 166.355 72.8104 166.698 72.9884C167.042 73.1664 167.563 73.3556 168.261 73.5558C168.915 73.7338 169.485 73.9118 169.973 74.0898C170.461 74.2678 170.837 74.507 171.103 74.8074C171.369 75.0967 171.502 75.5027 171.502 76.0256C171.502 76.8377 171.198 77.4719 170.588 77.928C169.979 78.3842 169.175 78.6122 168.178 78.6122Z" fill="white"/>
<path d="M181.348 78.6122C180.517 78.6122 179.774 78.4064 179.121 77.9948C178.467 77.5831 177.951 77.0324 177.575 76.3427C177.198 75.6529 177.009 74.8964 177.009 74.0731C177.009 73.261 177.192 72.5156 177.558 71.837C177.935 71.1583 178.45 70.6187 179.104 70.2182C179.758 69.8066 180.5 69.6008 181.331 69.6008C182.185 69.6008 182.933 69.8066 183.576 70.2182C184.218 70.6299 184.717 71.175 185.072 71.8536C185.437 72.5212 185.62 73.2554 185.62 74.0564C185.62 74.2344 185.615 74.3846 185.604 74.507H178.19C178.245 75.13 178.422 75.6863 178.722 76.1758C179.021 76.6542 179.403 77.038 179.869 77.3273C180.334 77.6054 180.844 77.7445 181.398 77.7445C181.963 77.7445 182.495 77.5998 182.994 77.3106C183.493 77.0213 183.847 76.6431 184.058 76.1758L185.039 76.4428C184.861 76.8656 184.584 77.2438 184.207 77.5776C183.842 77.9002 183.415 78.1561 182.927 78.3452C182.44 78.5232 181.913 78.6122 181.348 78.6122ZM178.156 73.6893H184.556C184.512 73.0663 184.34 72.5156 184.041 72.0372C183.742 71.5477 183.36 71.1694 182.894 70.9024C182.429 70.6243 181.913 70.4852 181.348 70.4852C180.783 70.4852 180.268 70.6243 179.802 70.9024C179.337 71.1694 178.954 71.5477 178.655 72.0372C178.367 72.5156 178.201 73.0663 178.156 73.6893Z" fill="white"/>
<path d="M194.645 78.4453H193.515V73.5892C193.515 72.5657 193.36 71.8203 193.05 71.353C192.75 70.8746 192.285 70.6354 191.653 70.6354C191.21 70.6354 190.772 70.7467 190.34 70.9692C189.908 71.1806 189.525 71.4754 189.193 71.8536C188.872 72.2208 188.639 72.6435 188.495 73.1219V78.4453H187.364V69.751H188.395V71.7201C188.739 71.086 189.243 70.5742 189.908 70.1849C190.573 69.7955 191.293 69.6008 192.069 69.6008C192.712 69.6008 193.221 69.7565 193.598 70.068C193.975 70.3684 194.241 70.8023 194.396 71.3697C194.562 71.926 194.645 72.5879 194.645 73.3556V78.4453Z" fill="white"/>
<path d="M201.708 70.6521H200.512V69.751H201.708V69.5173C201.708 68.9722 201.814 68.4382 202.024 67.9153C202.246 67.3924 202.578 66.9585 203.022 66.6137C203.476 66.2688 204.058 66.0963 204.767 66.0963C205.377 66.0963 205.898 66.1909 206.33 66.38C206.773 66.5692 207.089 66.736 207.277 66.8807L206.762 67.6984C206.574 67.5315 206.308 67.3924 205.964 67.2812C205.621 67.1588 205.244 67.0976 204.834 67.0976C204.357 67.0976 203.975 67.22 203.687 67.4647C203.399 67.6984 203.182 67.9988 203.038 68.3659C202.905 68.733 202.839 69.1057 202.839 69.484V69.751H207.178V78.4453H206.047V70.6521H202.839V78.4453H201.708V70.6521Z" fill="white"/>
<path d="M209.719 66.2632H210.85V76.4762C210.85 76.9101 210.922 77.1938 211.066 77.3273C211.221 77.4608 211.415 77.5275 211.648 77.5275C211.847 77.5275 212.047 77.5053 212.246 77.4608C212.457 77.4163 212.628 77.3718 212.761 77.3273L212.961 78.2451C212.75 78.3341 212.49 78.4064 212.18 78.462C211.88 78.5177 211.62 78.5455 211.398 78.5455C210.889 78.5455 210.479 78.3953 210.168 78.0949C209.869 77.7945 209.719 77.3829 209.719 76.86V66.2632Z" fill="white"/>
<path d="M217.889 78.6122C217.058 78.6122 216.315 78.4064 215.662 77.9948C215.019 77.5831 214.515 77.038 214.149 76.3594C213.783 75.6696 213.6 74.9242 213.6 74.1232C213.6 73.3111 213.783 72.5657 214.149 71.887C214.526 71.1973 215.035 70.6466 215.678 70.2349C216.332 69.8122 217.069 69.6008 217.889 69.6008C218.72 69.6008 219.457 69.8122 220.1 70.2349C220.754 70.6466 221.264 71.1973 221.629 71.887C222.006 72.5657 222.195 73.3111 222.195 74.1232C222.195 74.9242 222.012 75.6696 221.646 76.3594C221.28 77.038 220.77 77.5831 220.117 77.9948C219.474 78.4064 218.731 78.6122 217.889 78.6122ZM214.747 74.1399C214.747 74.7851 214.886 75.3748 215.163 75.9088C215.451 76.4317 215.833 76.8489 216.31 77.1604C216.786 77.4608 217.313 77.611 217.889 77.611C218.465 77.611 218.992 77.4552 219.468 77.1437C219.945 76.8322 220.327 76.4094 220.615 75.8754C220.903 75.3414 221.048 74.7518 221.048 74.1065C221.048 73.4612 220.903 72.8716 220.615 72.3376C220.327 71.8036 219.945 71.3808 219.468 71.0693C218.992 70.7578 218.465 70.6021 217.889 70.6021C217.324 70.6021 216.803 70.7634 216.327 71.086C215.85 71.3975 215.468 71.8203 215.18 72.3543C214.891 72.8883 214.747 73.4835 214.747 74.1399Z" fill="white"/>
<path d="M226.928 78.6122C226.218 78.6122 225.559 78.4954 224.949 78.2618C224.351 78.017 223.825 77.661 223.37 77.1938L223.836 76.3927C224.323 76.8489 224.811 77.1826 225.299 77.394C225.797 77.5943 226.324 77.6944 226.878 77.6944C227.543 77.6944 228.086 77.5609 228.507 77.2939C228.939 77.0158 229.155 76.6208 229.155 76.109C229.155 75.7642 229.05 75.5027 228.839 75.3247C228.64 75.1356 228.346 74.9854 227.958 74.8741C227.582 74.7629 227.127 74.635 226.595 74.4903C225.997 74.3234 225.493 74.151 225.082 73.973C224.684 73.7839 224.379 73.5502 224.168 73.2721C223.969 72.9829 223.869 72.6102 223.869 72.154C223.869 71.5978 224.007 71.1305 224.285 70.7522C224.573 70.374 224.961 70.0903 225.448 69.9012C225.947 69.7009 226.501 69.6008 227.111 69.6008C227.775 69.6008 228.363 69.7065 228.873 69.9179C229.382 70.1292 229.798 70.4241 230.119 70.8023L229.571 71.57C229.272 71.2139 228.9 70.9525 228.457 70.7856C228.025 70.6076 227.554 70.5186 227.044 70.5186C226.689 70.5186 226.351 70.5687 226.03 70.6688C225.709 70.7578 225.443 70.9136 225.232 71.1361C225.033 71.3474 224.933 71.6423 224.933 72.0205C224.933 72.4878 225.105 72.8104 225.448 72.9884C225.792 73.1664 226.313 73.3556 227.011 73.5558C227.665 73.7338 228.235 73.9118 228.723 74.0898C229.211 74.2678 229.587 74.507 229.853 74.8074C230.119 75.0967 230.252 75.5027 230.252 76.0256C230.252 76.8377 229.948 77.4719 229.338 77.928C228.729 78.3842 227.925 78.6122 226.928 78.6122Z" fill="white"/>
<path d="M235.811 78.6122C234.98 78.6122 234.237 78.4064 233.584 77.9948C232.941 77.5831 232.437 77.038 232.071 76.3594C231.705 75.6696 231.522 74.9242 231.522 74.1232C231.522 73.3111 231.705 72.5657 232.071 71.887C232.448 71.1973 232.957 70.6466 233.6 70.2349C234.254 69.8122 234.991 69.6008 235.811 69.6008C236.642 69.6008 237.379 69.8122 238.022 70.2349C238.676 70.6466 239.186 71.1973 239.551 71.887C239.928 72.5657 240.117 73.3111 240.117 74.1232C240.117 74.9242 239.934 75.6696 239.568 76.3594C239.202 77.038 238.693 77.5831 238.039 77.9948C237.396 78.4064 236.653 78.6122 235.811 78.6122ZM232.669 74.1399C232.669 74.7851 232.808 75.3748 233.085 75.9088C233.373 76.4317 233.755 76.8489 234.232 77.1604C234.708 77.4608 235.235 77.611 235.811 77.611C236.387 77.611 236.914 77.4552 237.39 77.1437C237.867 76.8322 238.249 76.4094 238.537 75.8754C238.826 75.3414 238.97 74.7518 238.97 74.1065C238.97 73.4612 238.826 72.8716 238.537 72.3376C238.249 71.8036 237.867 71.3808 237.39 71.0693C236.914 70.7578 236.387 70.6021 235.811 70.6021C235.246 70.6021 234.725 70.7634 234.249 71.086C233.772 71.3975 233.39 71.8203 233.102 72.3543C232.813 72.8883 232.669 73.4835 232.669 74.1399Z" fill="white"/>
<path d="M242.277 78.4453V70.6521H241.08V69.751H242.277V69.5173C242.277 68.4493 242.504 67.6149 242.958 67.0142C243.424 66.4023 244.044 66.0963 244.82 66.0963C245.152 66.0963 245.479 66.1464 245.801 66.2465C246.133 66.3467 246.416 66.4802 246.649 66.647L246.299 67.4647C245.967 67.2089 245.546 67.0809 245.036 67.0809C244.515 67.0809 244.111 67.2867 243.823 67.6984C243.546 68.11 243.407 68.7052 243.407 69.484V69.751H245.801V70.6521H243.407V78.4453H242.277Z" fill="white"/>
<path d="M247.348 78.4453V69.751H248.478V78.4453H247.348ZM248.296 68.0989L247.548 67.8152L248.528 66.2632H249.725L248.296 68.0989Z" fill="white"/>
<path d="M250.27 75.9422C250.27 75.4082 250.425 74.9465 250.735 74.5571C251.046 74.1566 251.472 73.8451 252.015 73.6226C252.57 73.4001 253.207 73.2888 253.927 73.2888C254.348 73.2888 254.786 73.3277 255.24 73.4056C255.695 73.4724 256.099 73.5669 256.454 73.6893V72.955C256.454 72.2208 256.238 71.6367 255.806 71.2028C255.373 70.7689 254.775 70.552 254.01 70.552C253.556 70.552 253.101 70.641 252.647 70.819C252.193 70.9859 251.722 71.2362 251.234 71.57L250.802 70.7689C251.367 70.3796 251.921 70.0903 252.464 69.9012C253.007 69.7009 253.561 69.6008 254.127 69.6008C255.19 69.6008 256.033 69.9067 256.653 70.5186C257.274 71.1305 257.584 71.976 257.584 73.0552V77.0769C257.584 77.3773 257.723 77.5331 258 77.5442V78.4453C257.756 78.4787 257.584 78.4898 257.485 78.4787C257.207 78.4676 256.997 78.3786 256.853 78.2117C256.709 78.0448 256.631 77.8668 256.62 77.6777L256.603 77.0436C256.216 77.5442 255.711 77.9336 255.091 78.2117C254.47 78.4787 253.838 78.6122 253.196 78.6122C252.63 78.6122 252.126 78.4954 251.683 78.2618C251.24 78.017 250.891 77.6944 250.636 77.2939C250.392 76.8823 250.27 76.4317 250.27 75.9422ZM256.072 76.6097C256.326 76.3093 256.454 76.0312 256.454 75.7753V74.507C255.689 74.2066 254.891 74.0564 254.06 74.0564C253.251 74.0564 252.597 74.2178 252.099 74.5404C251.6 74.863 251.35 75.3025 251.35 75.8587C251.35 76.3371 251.533 76.771 251.899 77.1604C252.276 77.5498 252.797 77.7445 253.462 77.7445C254.005 77.7445 254.509 77.6388 254.974 77.4274C255.451 77.216 255.817 76.9434 256.072 76.6097Z" fill="white"/>
</svg>
