<svg width="304" height="82" viewBox="0 0 304 82" fill="none" xmlns="http://www.w3.org/2000/svg">
<path d="M111.032 61.3635H117.962L116.814 55.968V23.8013H110.184V38.4727C108.19 36.1537 105.447 34.7933 102.208 34.7933C95.5777 34.7933 90.4442 40.2877 90.4442 48.3556C90.4442 56.4226 95.5777 61.918 102.208 61.918C105.499 61.918 108.339 60.506 110.334 58.085L111.032 61.3624V61.3635ZM242.087 42.0037C243.433 42.0037 244.679 42.3552 245.825 43.1611L248.966 36.0538C247.519 35.1447 245.825 34.7428 244.181 34.7428C241.189 34.7428 238.697 36.1001 237.103 38.6252L236.404 35.3446H229.574L230.671 40.4371V61.3593H237.297V44.7741C238.195 43.059 239.89 42.0016 242.084 42.0016V42.0037H242.087ZM261.526 54.9095C257.691 54.9095 254.847 52.3391 254.847 48.3546C254.847 44.3216 257.691 41.8017 261.526 41.8017C265.416 41.8017 268.208 44.3216 268.208 48.3546C268.208 52.3391 265.416 54.9095 261.527 54.9095H261.526ZM96.8737 48.3546C96.8737 44.3216 99.7151 41.8017 103.553 41.8017C107.443 41.8017 110.234 44.3216 110.234 48.3546C110.234 52.3391 107.443 54.9095 103.555 54.9095C99.7172 54.9095 96.8737 52.3391 96.8737 48.3546ZM290.889 54.9095C287.052 54.9095 284.211 52.3391 284.211 48.3546C284.211 44.3216 287.052 41.8017 290.889 41.8017C294.777 41.8017 297.568 44.3216 297.568 48.3546C297.568 52.3391 294.777 54.9095 290.889 54.9095ZM134.062 41.3977C137.501 41.3977 139.745 43.0106 140.442 45.9851H127.682C128.43 43.0106 130.672 41.3977 134.061 41.3977H134.062ZM213.371 41.3977C216.812 41.3977 219.056 43.0106 219.754 45.9851H206.993C207.741 43.0106 209.984 41.3977 213.372 41.3977H213.371ZM181.022 61.3635H191.689L198.62 35.3478H191.391L186.308 56.4226L181.223 35.3478H174.093L181.024 61.3624L181.022 61.3635ZM163.923 61.3635H170.549V35.3467H163.923V61.3635ZM135.078 61.8454C138.769 61.8454 142.407 60.8353 145.448 58.8699L142.906 53.123C140.513 54.3835 137.871 55.14 135.179 55.14C131.69 55.14 129.247 53.7785 128.2 51.2575H146.842C147.042 50.3 147.143 49.3426 147.143 48.182C147.143 40.1151 141.61 34.7207 134.182 34.7207C126.706 34.7207 121.222 40.1656 121.222 48.283C121.222 56.5509 126.655 61.8454 135.08 61.8454H135.078ZM304 48.3546C304 40.2877 298.417 34.7922 290.889 34.7922C283.361 34.7922 277.779 40.2877 277.779 48.3546C277.779 56.4226 283.361 61.9169 290.888 61.9169C298.417 61.9169 303.999 56.4226 303.999 48.3546H304ZM214.271 61.9169C217.957 61.9169 221.597 60.909 224.641 58.9425L222.096 53.1924C219.703 54.4529 217.061 55.2084 214.368 55.2084C210.88 55.2084 208.437 53.849 207.39 51.3259H226.034C226.233 50.3684 226.332 49.4109 226.332 48.2515C226.332 40.1845 220.798 34.7901 213.37 34.7901C205.894 34.7901 200.411 40.234 200.411 48.3525C200.411 56.6204 205.845 61.9148 214.27 61.9148V61.9169H214.271ZM261.527 61.9169C269.055 61.9169 274.637 56.4226 274.637 48.3546C274.637 40.2877 269.054 34.7922 261.526 34.7922C253.998 34.7922 248.416 40.2877 248.416 48.3546C248.416 56.4226 253.999 61.9169 261.525 61.9169H261.527ZM151.36 61.3624H157.989V23.8003H151.359V61.3624H151.36ZM167.261 31.7651C169.603 31.7651 171.398 29.9491 171.398 27.5291C171.398 25.1092 169.605 23.2942 167.262 23.2942C164.869 23.2942 163.074 25.1092 163.074 27.5291C163.074 29.9491 164.87 31.7641 167.263 31.7641L167.261 31.7651ZM53.3638 0.123489L49.5682 36.1726L43.0937 5.77991L22.7945 10.0875L29.2659 40.4781L0 46.6858L5.16914 70.9624L56.6341 81.8775L68.4036 55.4977L74.0047 2.28989L53.3617 0.122437L53.3638 0.124541V0.123489ZM37.1014 52.4191C36.0403 53.3892 34.6374 53.2997 33.1486 52.8052C31.6628 52.3128 31.0023 50.5189 31.5653 48.3504C31.9847 46.7406 33.9591 46.4986 34.9468 46.4817C35.3221 46.4754 35.6912 46.5512 36.032 46.7048C36.7303 47.0204 37.913 47.6938 38.1531 48.7207C38.4991 50.2022 38.1657 51.4458 37.1046 52.4159H37.1025V52.418L37.1014 52.4191ZM52.0007 54.092C51.2301 55.4283 49.2064 55.605 47.2153 54.6328C45.8732 53.9763 45.8837 52.3054 46.0305 51.287C46.1084 50.7314 46.3329 50.2069 46.6806 49.7676C47.1598 49.1616 47.9598 48.3714 48.8846 48.3472C50.3881 48.3072 51.682 48.9806 52.4128 50.199C53.1467 51.4132 52.7798 52.7526 52.007 54.092H52.0007Z" fill="white"/>
</svg>
