<svg width="78" height="137" viewBox="0 0 78 137" fill="none" xmlns="http://www.w3.org/2000/svg">
<path fill-rule="evenodd" clip-rule="evenodd" d="M53.4252 23.6806C53.5709 30.4135 51.0047 36.2904 47.7163 41.9262C42.8272 50.3049 36.595 57.7417 31.1699 65.744C27.5427 71.0964 24.1479 76.5662 22.8986 83.0868C22.1201 87.1511 20.3103 84.8128 18.935 83.5779C10.0435 75.5967 7.05035 61.9984 11.6171 50.5389C14.1434 44.1984 17.9835 38.6409 21.9073 33.1346C26.8914 26.1382 32.3533 19.4689 36.4291 11.8474C37.9538 8.99677 39.3621 6.05897 39.8416 2.82816C40.4529 -1.2913 42.1633 -0.242358 44.1442 1.77281C50.1077 7.83948 53.3644 15.0763 53.4252 23.6806Z" fill="white"/>
<path fill-rule="evenodd" clip-rule="evenodd" d="M60.6395 35.6423C65.2169 45.5365 69.076 55.4224 66.8967 66.5353C63.9786 81.4208 50.2804 92.1736 35.6609 91.1047C31.0798 90.7694 30.4257 89.9198 31.5002 85.4096C32.9419 79.3544 36.1796 74.2113 39.5453 69.1537C44.6662 61.4591 50.5344 54.3082 55.1891 46.2695C57.1545 42.8741 58.5616 39.2123 60.6395 35.6423Z" fill="white"/>
<path d="M24.8862 110.288C25.0804 110.391 25.2294 110.514 25.333 110.657C25.4366 110.786 25.5078 110.916 25.5467 111.045C25.5985 111.175 25.6244 111.298 25.6244 111.414C25.6374 111.531 25.6438 111.628 25.6438 111.706L25.4884 112.289L19.3689 136.767H16.008L12.8219 124.081L9.65529 136.767H6.2944L0.155417 112.289L0.0194271 111.706C0.00647571 111.628 0 111.531 0 111.414C0.0129514 111.298 0.04533 111.175 0.0971357 111.045C0.148941 110.916 0.22665 110.786 0.330261 110.657C0.433873 110.514 0.582814 110.391 0.777086 110.288C0.841843 110.262 0.913076 110.236 0.990785 110.21C1.06849 110.184 1.15268 110.158 1.24334 110.132C1.56712 110.042 1.8391 110.022 2.05928 110.074C2.27945 110.113 2.46077 110.184 2.60324 110.288C2.78456 110.43 2.9076 110.579 2.97235 110.735C3.05006 110.877 3.10187 110.974 3.12777 111.026L3.24433 111.492L7.80971 129.676H8.13997L11.1512 117.67H14.4927L17.5233 129.676H17.8535L22.4189 111.492L22.5355 111.026C22.5614 110.974 22.6067 110.877 22.6715 110.735C22.7492 110.579 22.8787 110.43 23.06 110.288C23.2025 110.184 23.3838 110.113 23.604 110.074C23.8242 110.022 24.0961 110.042 24.4199 110.132C24.5106 110.158 24.5948 110.184 24.6725 110.21C24.7502 110.236 24.8214 110.262 24.8862 110.288Z" fill="white"/>
<path d="M27.878 117.592H31.1806V136.767H27.878V117.592ZM31.3748 112.192C31.3748 112.451 31.323 112.69 31.2194 112.91C31.1288 113.131 30.9993 113.325 30.8309 113.493C30.6625 113.662 30.4618 113.798 30.2286 113.901C30.0085 113.992 29.7689 114.037 29.5098 114.037C29.2508 114.037 29.0112 113.992 28.791 113.901C28.5709 113.798 28.3766 113.662 28.2082 113.493C28.0398 113.325 27.9039 113.131 27.8002 112.91C27.7096 112.69 27.6643 112.451 27.6643 112.192C27.6643 111.933 27.7096 111.693 27.8002 111.473C27.9039 111.24 28.0398 111.039 28.2082 110.871C28.3766 110.702 28.5709 110.573 28.791 110.482C29.0112 110.378 29.2508 110.327 29.5098 110.327C30.0279 110.327 30.4682 110.508 30.8309 110.871C31.1935 111.233 31.3748 111.674 31.3748 112.192Z" fill="white"/>
<path d="M34.2889 110.365H37.3778V119.69C38.1031 118.771 38.945 118.072 39.9034 117.592C40.8618 117.113 41.9173 116.874 43.07 116.874C45.4531 116.874 47.3828 117.689 48.8593 119.321C50.3357 120.953 51.074 123.356 51.074 126.529C51.074 129.546 50.3487 132.04 48.8981 134.008C47.4217 136.003 45.3948 137 42.8174 137C42.0792 137 41.3215 136.909 40.5445 136.728C39.7803 136.547 39.0486 136.21 38.3492 135.718C37.9995 135.472 37.5915 135.141 37.1253 134.727C36.659 134.313 36.2122 133.782 35.7848 133.134C35.3704 132.486 35.0142 131.709 34.7163 130.803C34.4314 129.883 34.2889 128.795 34.2889 127.539V110.365ZM46.528 132.066C47.3699 130.732 47.7908 128.925 47.7908 126.645C47.7908 124.638 47.3699 122.987 46.528 121.691C45.6862 120.383 44.4493 119.729 42.8174 119.729C41.3928 119.729 40.143 120.267 39.068 121.342C37.993 122.404 37.4555 124.172 37.4555 126.645C37.4555 127.345 37.5138 128.031 37.6304 128.705C37.7469 129.365 37.9153 129.974 38.1355 130.531C38.5499 131.58 39.1198 132.428 39.8451 133.076C40.5704 133.71 41.5029 134.028 42.6426 134.028C43.4974 134.028 44.255 133.872 44.9156 133.561C45.5761 133.251 46.1136 132.752 46.528 132.066Z" fill="white"/>
<path d="M62.6525 116.874C63.9218 116.874 65.1133 117.139 66.2271 117.67C67.3539 118.188 68.3318 118.907 69.1606 119.826C70.0025 120.733 70.663 121.802 71.1422 123.032C71.6344 124.249 71.8804 125.551 71.8804 126.937C71.8804 128.323 71.6344 129.631 71.1422 130.861C70.663 132.078 70.0025 133.147 69.1606 134.066C68.3318 134.973 67.3539 135.692 66.2271 136.223C65.1133 136.741 63.9218 137 62.6525 137C61.3704 137 60.1659 136.741 59.0391 136.223C57.9253 135.692 56.9474 134.973 56.1056 134.066C55.2767 133.147 54.6227 132.078 54.1435 130.861C53.6643 129.631 53.4247 128.323 53.4247 126.937C53.4247 125.551 53.6643 124.249 54.1435 123.032C54.6227 121.802 55.2767 120.733 56.1056 119.826C56.9474 118.907 57.9253 118.188 59.0391 117.67C60.1659 117.139 61.3704 116.874 62.6525 116.874ZM62.6525 134.008C63.4685 134.008 64.2391 133.827 64.9644 133.464C65.6897 133.089 66.3178 132.584 66.8488 131.949C67.3928 131.301 67.8202 130.55 68.131 129.695C68.4418 128.828 68.5973 127.908 68.5973 126.937C68.5973 125.965 68.4418 125.052 68.131 124.198C67.8202 123.33 67.3928 122.579 66.8488 121.944C66.3178 121.296 65.6897 120.791 64.9644 120.429C64.2391 120.053 63.4685 119.865 62.6525 119.865C61.8237 119.865 61.0466 120.053 60.3213 120.429C59.596 120.791 58.9614 121.296 58.4174 121.944C57.8864 122.579 57.4655 123.33 57.1547 124.198C56.8438 125.052 56.6884 125.965 56.6884 126.937C56.6884 127.908 56.8438 128.828 57.1547 129.695C57.4655 130.55 57.8864 131.301 58.4174 131.949C58.9614 132.584 59.596 133.089 60.3213 133.464C61.0466 133.827 61.8237 134.008 62.6525 134.008Z" fill="white"/>
<path d="M74.5031 117.592H77.8057V136.767H74.5031V117.592ZM78 112.192C78 112.451 77.9482 112.69 77.8446 112.91C77.7539 113.131 77.6244 113.325 77.456 113.493C77.2877 113.662 77.0869 113.798 76.8538 113.901C76.6336 113.992 76.394 114.037 76.135 114.037C75.876 114.037 75.6364 113.992 75.4162 113.901C75.196 113.798 75.0017 113.662 74.8334 113.493C74.665 113.325 74.529 113.131 74.4254 112.91C74.3347 112.69 74.2894 112.451 74.2894 112.192C74.2894 111.933 74.3347 111.693 74.4254 111.473C74.529 111.24 74.665 111.039 74.8334 110.871C75.0017 110.702 75.196 110.573 75.4162 110.482C75.6364 110.378 75.876 110.327 76.135 110.327C76.6531 110.327 77.0934 110.508 77.456 110.871C77.8187 111.233 78 111.674 78 112.192Z" fill="white"/>
</svg>
