<svg width="292" height="136" viewBox="0 0 292 136" fill="none" xmlns="http://www.w3.org/2000/svg">
<path d="M132.58 80H138.852V71.5234L147.346 55.3394H140.681L135.776 65.5933H135.657L130.752 55.3394H124.087L132.58 71.5234V80ZM154.633 80.3931C160.495 80.3931 164.152 76.8555 164.152 70.7031V70.6689C164.152 64.6021 160.427 60.9961 154.633 60.9961C148.857 60.9961 145.114 64.6362 145.114 70.6689V70.7031C145.114 76.8384 148.737 80.3931 154.633 80.3931ZM154.65 75.7959C152.548 75.7959 151.266 73.9844 151.266 70.7031V70.6689C151.266 67.4561 152.582 65.5933 154.633 65.5933C156.684 65.5933 158.017 67.4561 158.017 70.6689V70.7031C158.017 73.9673 156.718 75.7959 154.65 75.7959ZM173.217 80.3931C176.037 80.3931 177.934 79.0601 178.874 76.7188H178.993V80H185.043V61.3892H178.993V71.9507C178.993 74.0186 177.78 75.4712 175.866 75.4712C173.866 75.4712 172.875 74.2065 172.875 72.0703V61.3892H166.808V73.3691C166.808 77.7783 169.132 80.3931 173.217 80.3931Z" fill="#F9F9F9"/>
<path d="M200.106 80.4443C206.515 80.4443 211.026 76.3257 211.249 70.8057L211.266 70.6177H205.233L205.199 70.8057C204.772 73.5571 202.84 75.249 200.123 75.249C196.688 75.249 194.501 72.4121 194.501 67.644V67.627C194.501 62.9102 196.671 60.0903 200.106 60.0903C202.977 60.0903 204.772 61.9019 205.165 64.4653L205.199 64.7217H211.232V64.5508C211.009 59.0308 206.549 54.895 200.106 54.895C192.74 54.895 188.109 59.5947 188.109 67.644V67.6611C188.109 75.7104 192.706 80.4443 200.106 80.4443ZM223.167 80.3931C229.029 80.3931 232.686 76.8555 232.686 70.7031V70.6689C232.686 64.6021 228.961 60.9961 223.167 60.9961C217.391 60.9961 213.648 64.6362 213.648 70.6689V70.7031C213.648 76.8384 217.271 80.3931 223.167 80.3931ZM223.184 75.7959C221.082 75.7959 219.8 73.9844 219.8 70.7031V70.6689C219.8 67.4561 221.116 65.5933 223.167 65.5933C225.218 65.5933 226.551 67.4561 226.551 70.6689V70.7031C226.551 73.9673 225.252 75.7959 223.184 75.7959ZM244.383 80.3931C250.244 80.3931 253.902 76.8555 253.902 70.7031V70.6689C253.902 64.6021 250.176 60.9961 244.383 60.9961C238.606 60.9961 234.864 64.6362 234.864 70.6689V70.7031C234.864 76.8384 238.487 80.3931 244.383 80.3931ZM244.4 75.7959C242.298 75.7959 241.016 73.9844 241.016 70.7031V70.6689C241.016 67.4561 242.332 65.5933 244.383 65.5933C246.433 65.5933 247.766 67.4561 247.766 70.6689V70.7031C247.766 73.9673 246.468 75.7959 244.4 75.7959ZM256.78 80H262.829V74.2749L263.923 72.959L268.452 80H275.425L268.469 69.353L275.032 61.3892H268.281L262.949 68.4473H262.829V55.3394H256.78V80Z" fill="#DE394C"/>
<path d="M69.2669 21.6444C69.7066 21.624 70.0829 21.6467 70.4433 21.5832C71.257 21.4427 71.588 21.8303 71.7421 22.5783C73.1021 29.2242 74.7681 35.8224 75.7722 42.5204C76.8829 49.937 74.6706 56.6599 69.5094 62.1112C63.0925 68.8908 60.9596 76.6496 63.267 85.6483C64.5545 90.669 66.6013 95.3474 69.9424 99.3707C71.631 101.404 73.5985 103.124 76.2482 103.752C79.6233 104.548 82.2957 103.036 84.6485 100.86C88.1324 97.6344 90.3446 93.5635 91.9993 89.182C93.4318 85.3854 94.4722 81.4844 94.1096 77.3636C93.62 71.7944 91.3193 67.0344 87.3028 63.1924C81.8016 57.9338 79.4465 51.4556 79.8749 44.0074C80.0653 40.6799 80.87 37.3774 81.525 34.0907C82.2458 30.4708 83.1185 26.8804 83.9232 23.2764C84.3357 21.4291 84.4581 21.3543 86.5729 21.7419C86.2465 23.2424 85.9224 24.7407 85.5914 26.239C85.1381 28.2994 84.721 30.3688 84.1997 32.4134C84.0048 33.1727 84.1521 33.5354 84.8389 33.9388C92.1489 38.2455 97.3146 44.3632 99.9825 52.4416C103.092 61.8596 102.197 70.9739 97.4212 79.662C96.7525 80.8815 96.3717 82.1146 96.0884 83.4496C94.5584 90.6667 91.7273 97.2581 86.3961 102.528C83.7214 105.173 80.5572 106.801 76.6268 106.329C74.1334 106.03 72.0413 104.867 70.2121 103.222C65.8624 99.3072 63.4053 94.2412 61.669 88.7854C60.3929 84.7779 59.5316 80.6911 60.0325 76.4298C60.7238 70.541 63.0041 65.3979 67.1748 61.1434C71.8237 56.4015 73.9884 50.6555 73.6121 44.0958C73.4217 40.8046 72.6329 37.536 71.9801 34.2856C71.2004 30.4074 70.2756 26.5608 69.421 22.6984C69.3508 22.3766 69.3236 22.0456 69.2669 21.6444Z" fill="#F9F9F9"/>
<path d="M46.988 21.4971C46.1902 24.5888 45.3923 27.3745 44.7622 30.1988C43.7376 34.7911 42.6859 39.3856 41.9062 44.0232C41.3055 47.5932 42.4388 50.966 43.9326 54.1892C45.1679 56.8571 46.9427 59.1283 49.0416 61.1864C54.7423 66.7806 57.0543 73.6758 55.9844 81.4844C55.0642 88.1938 53.575 94.8238 52.3306 101.488C52.2966 101.667 52.1968 101.832 52.1039 102.068C51.7299 102.023 51.3627 102 51.0023 101.93C50.6396 101.859 50.2838 101.742 49.7987 101.61C50.4152 98.6386 51.0227 95.7078 51.5984 92.9288C49.5176 91.3603 47.4346 89.9799 45.5736 88.3502C33.6918 77.9552 30.7496 60.282 38.6354 46.6004C39.3403 45.3764 39.372 44.1139 39.6644 42.8536C41.2534 36.0332 42.8536 29.2151 44.463 22.3992C44.8211 20.8896 45.9975 21.8869 46.988 21.4971Z" fill="#F9F9F9"/>
<path d="M75.7338 95.2023C75.0992 95.7508 74.5597 96.2155 74.0338 96.6733C68.4941 92.8155 65.7514 77.3591 69.5141 70.9535C70.1442 71.3048 70.7812 71.6584 71.4974 72.0574C69.8858 76.024 69.8926 80.0882 70.6225 84.1772C71.3478 88.2527 73.0138 91.9224 75.7338 95.2023Z" fill="#F9F9F9"/>
<path d="M48.5272 45.3741C48.7086 43.1868 48.8854 40.9858 49.0712 38.7826C49.5019 33.6781 49.9552 28.5758 50.3587 23.469C50.5106 21.5356 50.5536 21.454 52.7636 21.6874C52.6707 23.1222 52.5981 24.5706 52.4803 26.0145C51.9929 31.9078 51.4693 37.7989 51.0047 43.6968C50.8347 45.8365 50.8823 45.8501 48.5272 45.3741Z" fill="#F9F9F9"/>
<path d="M62.6619 21.6489C63.4416 21.6489 64.108 21.6489 64.9127 21.6489C65.5904 29.5619 66.2681 37.4612 66.9549 45.4693C66.1117 45.5169 65.4499 45.5532 64.6339 45.6008C63.9765 37.6153 63.326 29.7069 62.6619 21.6489Z" fill="#F9F9F9"/>
<path d="M58.8179 45.5124C58.0563 45.5124 57.3831 45.5124 56.6577 45.5124C56.6577 37.5677 56.6577 29.6684 56.6577 21.6807C57.4193 21.6807 58.0721 21.6807 58.8179 21.6807C58.8179 29.6095 58.8179 37.5088 58.8179 45.5124Z" fill="#F9F9F9"/>
</svg>
